<?xml version="1.0" encoding="UTF-8"?>
<svg width="40px" height="40px" viewBox="0 0 40 40" version="1.1" xmlns="http://www.w3.org/2000/svg" xmlns:xlink="http://www.w3.org/1999/xlink">
    <!-- Generator: Sketch 48.2 (47327) - http://www.bohemiancoding.com/sketch -->
    <title>01-icons/device/phone</title>
    <desc>Created with Sketch.</desc>
    <defs>
        <path d="M27.3846154,0 L12.6153846,0 C10.0676923,0 8,2.03636364 8,4.54545455 L8,35.4545455 C8,37.9636345 10.0676923,40 12.6153846,40 L27.3846154,40 C29.9323077,40 32,37.9636345 32,35.4545455 L32,4.54545455 C32,2.03636364 29.9323077,0 27.3846154,0 Z M20,38.1818182 C18.4676923,38.1818182 17.2307692,36.9636364 17.2307692,35.4545455 C17.2307692,33.9454545 18.4676923,32.7272727 20,32.7272727 C21.5323077,32.7272727 22.7692308,33.9454545 22.7692308,35.4545455 C22.7692308,36.9636364 21.5323077,38.1818182 20,38.1818182 Z M28.3076923,30.9090909 L11.6923077,30.9090909 L11.6923077,5.45454545 L28.3076923,5.45454545 L28.3076923,30.9090909 Z" id="path-1"></path>
    </defs>
    <g id="Symbols" stroke="none" stroke-width="1" fill="none" fill-rule="evenodd">
        <g id="01-icons/device/phone">
            <mask id="mask-2" fill="white">
                <use xlink:href="#path-1"></use>
            </mask>
            <use id="Page-1" fill-opacity="0.87" fill="#212121" xlink:href="#path-1"></use>
            <g id="00-color/neutral-color/dark" mask="url(#mask-2)" fill="#212121">
                <rect id="Background" x="0" y="0" width="40" height="40"></rect>
            </g>
        </g>
    </g>
</svg>